Patient4_TMGait_0pt6_01_right_10_EMG.mot
version=1
nRows=40
nColumns=33
inDegrees=no
endheader
time	1LAddLong	2LGlutMax	3LGlutMed	4LIliopsoas	5LSemiMemb	6LBicFemLong	7LRecFem	8LVastMed	9LVastLat	10LGasMed	11LTibAnt	12lTibPost	13LPeroneusLong	14LSol	15LExtDigLong	16LFlexDigLong	17RAddLong	18RGlutMax	19RGlutMed	20RIliopsoas	21RSemiMemb	22RBicFemLong	23RRecFem	24RVastMed	25RVastLat	26RGasMed	27RTibAnt	28RTibPost	29RPeroneusLong	30RSol	31RExtDigLong	32RFlexDigLong
12.835	0.005188	-0.089569	-0.024414	0.005188	0.027466	-0.49118	0.31586	0.001984	-0.1059	-0.074921	0.00473	-0.002747	0.054169	-0.050659	0.18112	0.046234	-0.008087	0.049744	0.42419	-0.085907	-0.25177	-0.068512	-0.078888	0.10346	0.035858	-0.020752	0.2005	-0.005188	-0.057983	-0.045471	0	-0.002747
12.836	-0.001221	-0.096436	-0.024872	0.013733	0.031128	-0.41184	0.36987	-0.006561	-0.13641	-0.16357	0.002747	-0.007019	0.16571	-0.087128	0.10284	0.054474	0.005493	0.025177	0.14923	-0.023956	0.33783	-0.013885	-0.080872	0.11795	0.045319	-0.019684	0.12039	-0.001526	-0.066071	-0.066681	0.002899	-0.007935
12.837	-0.002899	-0.096283	-0.027771	0.005951	0.02121	-0.33554	0.35065	0.003967	-0.090027	-0.10895	0.001068	-0.010529	0.21088	-0.11688	0.103	0.02182	0.019836	0.007477	0.037994	-0.016785	0.38895	0.063629	-0.066071	0.085449	0.028534	-0.020447	-0.051727	-0.001373	-0.053253	-0.095825	-0.001526	-0.001526
12.838	0.00473	-0.067444	-0.040741	0.00061	0.007629	-0.242	0.31845	0.005798	-0.054321	-0.11566	0.020599	-0.014191	-0.009613	-0.10605	0.097351	-0.007935	-0.001221	-0.016937	-0.28885	0.023041	0.44296	0.13138	-0.051117	0.12131	0.03952	-0.0177	-0.10346	-0.004578	-0.078888	-0.072632	0.005646	-0.014343
12.839	-0.004578	-0.079651	-0.046082	-0.001984	0.001831	-0.15884	0.31113	0.009918	-0.050507	-0.16373	0.037994	-0.004578	-0.13962	-0.13657	0.10452	0.010071	0.027161	-0.028534	-0.3714	0.087433	0.19531	0.099182	-0.01709	0.11108	0.016479	-0.017548	-0.28824	-0.001678	-0.081482	0.010071	0.002747	-0.002136
12.84	0.001526	-0.052948	-0.036774	0.015411	0.003357	-0.12436	0.28305	0.004883	0.013428	0.01358	0.016174	-0.000763	-0.031281	-0.13184	0.1474	0.027771	0.044098	-0.047455	-0.16907	0.12482	0.039215	0.17639	0.01236	0.10391	0.022888	-0.014648	-0.2153	-0.004578	-0.02655	0.066376	0.001526	-0.009308
12.841	-0.001678	-0.050507	-0.043488	0.011597	0.007935	-0.079498	0.28275	-0.003967	0.065308	0.12558	-0.017853	-0.003052	-0.024109	-0.10254	0.14633	0.036316	0.037231	-0.053711	-0.11566	0.082092	0.013275	0.16068	0.015106	0.12375	0.026245	-0.00061	-0.16083	-0.004425	0.11322	0.028687	0	-0.006409
12.842	-0.00061	-0.049286	0	0.015869	0.016479	-0.049133	0.31586	0.002899	-0.014343	0.37521	-0.018768	0.023041	-0.051117	-0.016785	0.083313	-0.43671	0.014343	-0.067749	-0.18784	-0.004272	0.009613	0.027924	0.034027	0.065765	0.02594	0.005951	-0.22293	-0.002594	0.1326	0.003052	0.001526	-0.013123
12.843	0.00351	-0.026093	0.057678	0.012207	0.015564	0.037079	0.31525	0.002899	-0.054016	0.46295	-0.048065	0.019684	-0.055847	0.027161	0.19302	-0.12772	0.00351	-0.061646	-0.11978	-0.084991	-0.003204	-0.13565	0.034485	0.010681	0.014954	0.006256	-0.026703	-0.001373	-0.015564	-0.010529	-0.002899	-0.019226
12.844	-0.002594	-0.022583	0.016327	0.013123	-0.009308	0	0.27237	0.012512	-0.11551	0.1593	-0.067291	0.008087	-0.062408	0.005188	0.19196	0.47211	0.018921	-0.032501	-0.038757	-0.060425	-0.023041	-0.18799	0.002747	0.058899	-0.007782	0.012207	0.050201	-0.00351	-0.084686	0.051422	0.001831	-0.015869
12.845	-0.006866	-0.051727	-0.039215	0.010529	0.006714	-0.033722	0.2475	0.011597	-0.12177	-0.08255	0.1561	0.015717	-0.022888	0.004425	0.15945	0.30136	0.037994	-0.057831	-0.08255	-0.003967	-0.071106	-0.15839	0.05661	0.013885	0.003967	0.021362	-0.088043	-0.005798	-0.11597	0.058441	0.003815	-0.016785
12.846	0.000458	-0.046234	-0.070038	0.020142	0.006561	-0.000458	0.25665	0.010529	-0.047607	-0.11017	0.28946	0.011597	-0.06424	0.084991	0.23407	-0.46249	0.079651	-0.047913	-0.035095	0.043488	-0.093231	-0.16937	0.092316	0.019226	0.004425	0.024109	-0.072937	-0.002136	-0.1062	0.012665	0	-0.005341
12.847	0.00061	-0.00824	-0.04837	-0.000305	0.011292	0.059204	0.28702	0.000458	0.012054	-0.007935	0.11948	0.001831	0.008087	0.17075	0.36926	0.47318	0.091705	-0.045624	0.097198	0.095825	0.024567	-0.13718	0.026093	-0.021667	0.004883	0.037079	-0.098724	-0.003357	-0.059357	0.01709	-0.002747	-0.011902
12.848	-0.00946	0.018005	-0.010071	-0.00824	-0.007324	0.088501	0.29251	0.006561	0.070648	-0.084686	0.015411	0.000305	-0.023193	0.19119	-0.35782	-0.012665	0.051575	-0.032959	0.18677	0.054321	0.084686	-0.070496	0.031128	0.078888	0.00824	0.050659	-0.14832	-0.004272	-0.012512	0.013733	-0.003815	-0.012665
12.849	-0.000305	0.01358	-0.018768	0.00351	-0.008392	0.05722	0.31815	0.004578	0.25772	-0.078278	-0.06424	-0.005493	-0.11795	0.23865	0.32318	0.036011	0.023041	-0.026245	0.064545	0.02533	0.070038	0.021057	0.083923	0.058441	0.013123	0.057068	-0.078888	0.001526	0.023499	-0.02182	0.002594	-0.009918
12.85	-0.001068	0.019379	-0.030975	-0.010376	-0.010834	0.031281	0.31189	0.006104	0.30914	-0.080566	0.005493	0.00061	-0.10895	0.31342	0.41977	0.003815	0.075531	-0.049591	-0.15732	-0.002441	0.12009	0.20065	0.015106	0.009766	0.015259	0.046692	-0.007477	-0.004272	0.099487	-0.001526	-0.001221	-0.006256
12.851	0.004578	0.019226	-0.022888	0.014038	0.005188	0.027466	0.30655	0.002441	0.26794	-0.028229	0.016479	0.003357	-0.014038	0.22659	-0.1181	-0.024414	0.096283	-0.09079	-0.13519	-0.040588	0.053558	0.22507	-0.002594	-0.024414	0.015869	0.039825	0.003204	-0.000305	0.14389	0.052032	0.000458	-0.007629
12.852	0.000916	0.029449	-0.025787	0.006409	0.042725	0.07019	0.27634	-0.004272	0.10666	0.002747	0.088043	0.003815	0.018311	0.12528	-0.39597	-0.032196	0.043793	-0.054779	-0.15518	-0.05127	-0.035248	0.10559	-0.026093	-0.005646	0.023651	0.032959	0.000153	-0.010834	0.076447	0.042572	-0.000916	-0.000305
12.853	-0.002747	0.056915	-0.010681	-0.003662	0.023499	0.095062	0.25787	0.005035	0.22308	0.007477	0.10757	0.004578	-0.012512	0.042877	-0.72678	-0.016632	-0.047302	-0.051422	0.071564	-0.060272	-0.091095	0.036316	-0.007935	0.000916	0.004883	0.02533	0.051727	-0.003662	-0.014343	0.033875	0.001221	-0.013275
12.854	0.001373	0.09491	-0.020905	-0.007629	0.002136	0.061493	0.30762	0.011139	0.1976	0.007019	0.016632	-0.000458	0.030975	-0.056915	-0.69672	-0.022736	-0.06073	-0.065613	-0.1709	0.015717	-0.076752	0.005341	-0.009308	-0.015259	0.002136	0.018921	0.046387	-0.00473	-0.041351	0.030823	0.001373	-0.00885
12.855	0.00946	0.13031	0.018158	0.00412	0.007019	0.063324	0.31387	0.003204	-0.26413	0.046692	-0.09491	-0.003662	0.000916	-0.14206	-0.4068	-0.03418	-0.023651	-0.031128	-0.35049	0.14923	-0.073853	-0.011139	-0.061951	-0.018158	-0.001831	0.015259	0.043793	-0.003662	-0.090942	0.002289	0.005341	-0.00061
12.856	0.007477	0.10941	-0.009613	0.014954	0.001526	0.047607	0.26489	-0.014496	-0.52582	0.054016	-0.17242	-0.004425	0.005341	-0.13428	-0.22553	-0.023956	0.03418	-0.035248	-0.57114	0.056152	-0.17227	-0.01709	-0.039825	-0.035095	0.003815	0.012665	0.041656	-0.009003	0.03891	0.011444	-0.00351	-0.003357
12.857	0.013275	0.12817	-0.014648	0.013428	0.00885	-0.025635	0.26489	-0.007019	-0.40695	0.057831	-0.21637	-0.002594	0.001678	-0.077057	-0.069275	-0.02594	0.037537	0.006256	-0.48386	0.069275	-0.37277	-0.015106	-0.021515	-0.0914	0.009308	0.001373	0.061493	-0.009308	0.084229	0.037079	0.001068	-0.001678
12.858	0.001526	0.064545	-0.004425	-0.000458	0.010986	-0.056305	0.30075	-0.009308	-0.17731	0.045319	-0.18356	-0.016327	0.017242	-0.020752	0.33844	-0.025024	-0.007019	0.05188	0.19547	0.07309	-0.34042	-0.006714	-0.019989	-0.10605	0.006256	-0.005341	0.059357	-0.006409	0.13001	0.035858	0.001831	-0.007782
12.859	-0.00061	0.064697	-0.041962	0.005341	0.001068	-0.039368	0.29083	-0.002747	-0.088806	0.045776	-0.042114	-0.004578	-0.032654	0.035248	0.35263	-0.023804	-0.016937	0.00946	0.62485	-0.020905	-0.064545	0.085907	-0.030518	-0.11459	0.007324	-0.018921	0.017242	-0.003967	0.14893	0.024261	0.002136	-0.00412
12.86	-0.002289	0.072632	-0.054626	0.00061	0.004883	0.000458	0.31967	0.011597	-0.10712	0.038757	0.063782	-0.00412	-0.047455	0.041809	0.28702	-0.019684	-0.06134	0.010681	0.24811	0.007782	0.23315	0.13809	-0.048981	-0.034637	0.010376	-0.014954	-0.005035	-0.007782	0.073853	-0.003052	0.000305	-0.010834
12.861	0.002594	0.06485	-0.11261	0.021973	-0.006256	-0.020905	0.28992	0.001068	-0.077515	0.029755	0.039063	0.004272	-0.002594	-0.026093	0.016327	-0.018158	-0.13886	-0.041656	0.93475	-0.033112	0.22507	0.13123	-0.099182	-0.009308	0.037842	-0.018921	0.022125	-0.004272	0.029144	0.013885	0.001678	-0.007019
12.862	0	0.092621	-0.07431	0.016632	0.002289	-0.030975	0.2475	0.007019	-0.045624	0.006256	-0.009308	-0.002136	0.035706	0.07782	-0.12512	-0.014954	-0.13397	-0.042572	0.96573	0.033417	-0.084686	0.20462	-0.050812	-0.001984	0.022583	-0.015106	0.003204	-0.005188	0.048981	0.000763	0.00061	-0.005035
12.863	0.000763	0.10971	0.054932	0.018158	0.003052	-0.065613	0.25131	0.00946	-0.01297	-0.010376	0.043488	-0.000458	0.077209	0.11261	-0.22476	-0.023651	-0.097504	-0.076599	0.21805	0.056305	0.063934	0.20859	-0.041962	0.024872	0.010834	-0.018158	0.023499	-0.005035	0.027618	0.016632	0.001068	-0.007324
12.864	0.003662	0.068817	0.14526	0.008545	-0.001221	-0.012512	0.30975	0.007019	-0.006256	-0.011749	0.19424	0.012665	0.00473	0.18051	-0.009003	-0.031433	-0.071106	-0.086975	0.73441	0.034027	0.089111	0.13794	-0.030365	0.080261	0.004425	-0.019379	-0.039673	0.002594	0.036163	-0.013123	0.001526	-0.015106
12.865	-0.003357	0.074921	0.27313	-0.009155	-0.013733	0.04364	0.33951	-0.005798	-0.097809	-0.014801	0.068817	0.007782	0.013733	0.15106	-0.10239	-0.020447	-0.040741	-0.088501	0.41031	0.033112	0.093231	0.099487	-0.027313	0.049896	0.003662	-0.020294	-0.069275	-0.005798	0.000153	-0.004272	-0.000763	-0.006409
12.866	0.001373	0.093231	0.20065	0.007019	-0.028687	0.045624	0.30655	0.007477	-0.15259	-0.00824	-0.50873	0.002594	-0.007172	0.10513	0.1004	-0.014801	-0.011292	-0.031281	0.15823	0.025024	0.088196	-0.007629	-0.013275	0.093536	0.022125	-0.023193	0.060883	-0.00412	-0.03418	-0.014343	0.002594	-0.006409
12.867	0.003357	0.056763	0.11841	-0.017395	0.013275	0.049744	0.21591	0.011139	-0.10056	0.020599	-0.27908	0.003052	-0.055847	0.077362	0.43732	-0.012512	-0.016022	-0.033875	0.22385	-0.046692	0.15289	-0.11124	-0.056305	0.14053	0.032501	-0.014343	0.089569	-0.003967	-0.089569	-0.019684	0.000916	-0.010681
12.868	0.00473	0.062408	0.064697	-0.005493	0.023956	0.046692	0.21439	0.005951	0.037994	0.021057	-0.2272	0.003357	-0.017395	0.13672	0.44434	-0.024261	-0.055542	-0.024261	0.57602	-0.11688	0.16754	-0.16266	-0.044556	0.11398	0.027466	-0.006104	0.13687	-0.004272	0.12009	-0.052643	0.001678	-0.005188
12.869	0.00351	0.054626	-0.03006	-0.003662	0.012817	0.097961	0.3157	0.007782	0.093079	-0.014648	-0.004578	0.005035	0.00473	0.08194	-0.096893	-0.023956	-0.047302	-0.065308	0.36072	-0.029755	0.18555	-0.094757	0.01358	0.13077	0.033569	-0.003662	0.10452	-0.006866	0.33386	-0.024261	-0.000305	-0.003204
12.87	-0.000458	0.054169	0.012512	0	0.00946	0.029602	0.42526	0.00885	0.12634	-0.049438	0.15472	0	0.071259	-0.009766	-0.24353	-0.019379	-0.025024	-0.087891	-0.3305	0.031738	0.14847	-0.005493	-0.05722	0.10452	0.033264	-0.000458	0.061188	-0.011902	-0.27573	-0.040894	0.003052	-0.001373
12.871	0.002136	0.062714	-0.048065	0.010376	0.002747	0.014038	0.49027	-0.00351	0.15778	-0.028839	0.15747	-0.001678	0.07019	-0.079346	-0.30533	-0.0177	0.008698	-0.084534	-0.36941	0.029144	0.12116	-0.13733	-0.048523	0.073395	0.016785	0.000305	0.02182	-0.009613	-0.17425	-0.002289	0.001831	0.000305
12.872	-0.000153	0.076447	-0.004578	0.005341	-0.006256	0.010681	0.50217	0.001678	0.048218	0.006561	0.14557	0.003967	-0.029907	-0.056763	-0.17136	-0.052948	0.045776	-0.074005	-0.14771	-0.009003	0.12405	-0.22461	-0.020447	0.022278	0.023193	-0.007782	-0.028534	-0.007324	0.12436	0.067444	0.00351	-0.003815
12.873	0.004578	0.028687	-0.067749	0.011749	-0.007629	0.00473	0.41458	0.012512	-0.0177	0.009155	0.088196	0.005188	-0.081024	-0.12177	0.080872	-0.056	0.036926	-0.058441	-0.168	0.012817	0.10681	-0.18402	-0.027466	-0.011902	0.029144	-0.009155	0.01709	-0.009155	-0.44449	0.067291	0.002747	-0.006256
12.874	0.010223	0.036469	-0.014496	0.025024	0.002289	-0.015411	0.28656	0.025482	-0.077362	-0.028229	-0.061646	0.001221	0.006409	-0.13657	0.20676	-0.027618	-0.014191	-0.10712	-0.11459	0.014648	0.003967	0.001068	-0.025787	0.010223	0.013885	-0.013885	0.040894	-0.009918	-0.76858	0.004272	0.000305	-0.011292
